<svg xmlns="http://www.w3.org/2000/svg" viewBox="0 0 512.99 202.24"><defs><style>.cls-1{fill:#231f20;}.cls-2{fill:none;}</style></defs><title>Asset 4</title><g id="Layer_2" data-name="Layer 2"><g id="Layer_1-2" data-name="Layer 1"><path class="cls-1" d="M133.63,9.47a11.3,11.3,0,0,1-1,4.61L49.66,196.35q-2.3,5.89-7.42,5.89a10.19,10.19,0,0,1-4.61-1q-5.89-2.3-5.89-7.68a11.25,11.25,0,0,1,1-4.61l25.34-56.06v-.26L1,14.34A10.14,10.14,0,0,1,0,9.73Q0,4.35,5.63,2a10.19,10.19,0,0,1,4.61-1q5.38,0,7.68,5.38L67.84,111.62l47.62-105Q118,1,123.14,1a11.31,11.31,0,0,1,4.61,1Q133.63,4.35,133.63,9.47Z"/><path class="cls-1" d="M394.62,24.58a7.84,7.84,0,0,1,2,5.38q0,4.1-4.35,7.17a8.63,8.63,0,0,1-4.86,1.54q-3.84,0-7.42-3.84a52.34,52.34,0,0,0-16.9-12.67,48.58,48.58,0,0,0-20.48-4.22,46.85,46.85,0,0,0-25.09,6.78,45.11,45.11,0,0,0-17,19.07,62,62,0,0,0-6,27.65,57.6,57.6,0,0,0,6.4,27.26,47.64,47.64,0,0,0,17.92,19.07,50.25,50.25,0,0,0,26.37,6.91q20.48,0,33-11a10.6,10.6,0,0,1,6.91-2.82,8.82,8.82,0,0,1,5.63,2q3.58,3.07,3.58,6.91a7.3,7.3,0,0,1-2.56,5.63q-18.43,17.15-46.59,17.15-20,0-35.84-9.34a67.15,67.15,0,0,1-25-25.6,72.93,72.93,0,0,1-9.09-36.22q0-20.48,8.7-36.74A64.66,64.66,0,0,1,308.09,9.22,65.86,65.86,0,0,1,342.65,0Q374.65,0,394.62,24.58Z"/><path class="cls-1" d="M486.88,5.76a51.75,51.75,0,0,1,20.22,16,11.64,11.64,0,0,1,2,5.89,7.82,7.82,0,0,1-4.1,6.91,8.21,8.21,0,0,1-4.86,1.28,11.74,11.74,0,0,1-9-3.84q-12.55-14.33-34.3-14.34-14.08,0-22.53,5.76t-8.45,14.46q0,9.22,7.94,14.72T462,61.44q27.39,4.61,39.17,15T513,102.14a33.67,33.67,0,0,1-7,21q-7,9.22-19.58,14.34a74.59,74.59,0,0,1-28.42,5.12,87.41,87.41,0,0,1-30.46-5.38q-14.59-5.38-23.55-15.1a9.36,9.36,0,0,1-2.56-5.89q0-4.35,4.1-7.68a10.52,10.52,0,0,1,6.4-2.3,9.46,9.46,0,0,1,7.42,3.58,39.23,39.23,0,0,0,16.26,11,62.63,62.63,0,0,0,22.4,3.84q17.92,0,26.88-6.14T494,102.4q0-9.22-9-15.36t-28.42-9.22q-25.09-4.09-37.5-14.21T406.75,39.17q0-18.68,14.46-28.93T457.44,0Q474.33,0,486.88,5.76Z"/><path class="cls-2" d="M241.2,75.45"/><path class="cls-1" d="M257.17,35.07a68.07,68.07,0,0,0-25.6-25.73,74.89,74.89,0,0,0-72.45,0,68,68,0,0,0-25.6,25.73,72,72,0,0,0-9.34,36.35,72.93,72.93,0,0,0,9.09,36.22,67.42,67.42,0,0,0,60,34.94,66.13,66.13,0,0,0,30.46-7,63.36,63.36,0,0,0,22.78-19.33v15.36a9.27,9.27,0,0,0,2.82,7,10,10,0,0,0,7.17,2.69,9.7,9.7,0,0,0,7.17-2.82,9.4,9.4,0,0,0,2.82-6.91V71.42A72.1,72.1,0,0,0,257.17,35.07ZM240.23,77l-1.46,1.64c-1,1.09-2,2-2.93,3H201.73a9.43,9.43,0,1,1-13.31-13.34V24.65a4.51,4.51,0,0,0,0-1,1.14,1.14,0,0,1,0-1c.92-1.31,1.89-2.62,3-3.93l1.67-2c.63-.66,1.19-1.31,1.89-2,.69.66,1.25,1.31,1.89,2l1.67,2c1.1,1.31,2.06,2.62,3,3.93a1.14,1.14,0,0,1,0,1,4.5,4.5,0,0,0,0,1V68.33l.38.38h34.11c1,1,2,1.91,2.93,3l1.46,1.64c.49.61,1,1.16,1.46,1.83C241.21,75.85,240.72,76.4,240.23,77Z"/></g></g></svg>