<svg xmlns="http://www.w3.org/2000/svg" viewBox="0 0 378.52 404.66"><defs><style>.cls-1,.cls-2,.cls-3{fill:none;}.cls-1,.cls-2,.cls-4{stroke:#fff;}.cls-1,.cls-2,.cls-3,.cls-4{stroke-miterlimit:10;}.cls-1{stroke-width:9px;}.cls-2{stroke-width:14px;}.cls-3{stroke:#231f20;stroke-width:7px;}.cls-4,.cls-5{fill:#fff;}.cls-4{stroke-width:6px;}</style></defs><title>yacs-letterform-white</title><g id="Layer_2" data-name="Layer 2"><g id="Layer_1-2" data-name="Layer 1"><path class="cls-1" d="M164.45,382.81"/><circle class="cls-2" cx="164.45" cy="240.21" r="157.45"/><line class="cls-1" x1="164.45" y1="82.75" x2="164.45" y2="127.11"/><line class="cls-1" x1="164.45" y1="355.57" x2="164.45" y2="397.66"/><line class="cls-1" x1="279.82" y1="240.21" x2="321.91" y2="240.21"/><line class="cls-1" x1="49.09" y1="240.21" x2="7" y2="240.21"/><line class="cls-3" x1="231.84" y1="127.11" x2="245.05" y2="104.93"/><line class="cls-1" x1="83.86" y1="375.49" x2="97.07" y2="353.31"/><line class="cls-1" x1="27.05" y1="318.89" x2="49.97" y2="305.67"/><line class="cls-1" x1="276.94" y1="174.75" x2="299.86" y2="161.52"/><line class="cls-1" x1="49.09" y1="173.66" x2="28.05" y2="161.52"/><line class="cls-1" x1="298.09" y1="317.66" x2="277.05" y2="305.52"/><line class="cls-1" x1="97.07" y1="127.11" x2="83.86" y2="104.93"/><line class="cls-1" x1="245.05" y1="375.49" x2="231.84" y2="353.31"/><circle class="cls-4" cx="163.95" cy="239.92" r="16.55"/><line class="cls-5" x1="217.82" y1="146.37" x2="163.84" y2="239.85"/><path class="cls-5" d="M217.82,146.37a77.69,77.69,0,0,1,.68,8.19c.07,1.34,0,2.63.08,3.94s0,2.58-.07,3.86a2.51,2.51,0,0,1-.87,1.45,10.07,10.07,0,0,0-.9,1.43l-1.69,2.92L211.68,174l-13.49,23.37L184.7,220.73l-6.75,11.69c-2.2,1.32-4.43,2.64-6.77,3.88s-4.76,2.44-7.33,3.56q-.49-4.18-.59-8.13c-.1-2.65-.07-5.24,0-7.81L170,212.23l13.49-23.37L197,165.49l3.37-5.84,1.69-2.92a10.08,10.08,0,0,0,.79-1.49,2.51,2.51,0,0,1,.82-1.48c1.08-.67,2.2-1.33,3.31-2s2.26-1.29,3.45-1.9A77.64,77.64,0,0,1,217.82,146.37Z"/><line class="cls-5" x1="102.7" y1="144.8" x2="164.45" y2="239.92"/><path class="cls-5" d="M102.7,144.8a81.8,81.8,0,0,1,7.79,3.39c1.26.59,2.42,1.24,3.64,1.86s2.35,1.29,3.5,2a2.77,2.77,0,0,1,.94,1.5,11.11,11.11,0,0,0,.91,1.52l1.93,3,3.86,5.94,15.44,23.78,15.44,23.78,7.72,11.89c.24,2.66.46,5.33.57,8.08s.14,5.54,0,8.44q-4-1.61-7.7-3.45c-2.47-1.21-4.82-2.5-7.15-3.81l-7.72-11.89L126.45,197,111,173.21l-3.86-5.94-1.93-3a11.11,11.11,0,0,0-1-1.45,2.77,2.77,0,0,1-1-1.47c-.14-1.32-.25-2.66-.36-4s-.19-2.69-.22-4.08A81.78,81.78,0,0,1,102.7,144.8Z"/><path class="cls-5" d="M203.33,38.51,186.51,67.77m0,0c-20,34.87,113.72,111.73,133.76,76.87l16.82-29.26L255,101.48l-51.66-63"/><path class="cls-5" d="M303.21,20.33l-11.64-2.05L187.83,0m0,0,75.43,89.63,115.27,20L303.21,20.33"/><line class="cls-5" x1="111.96" y1="339.06" x2="164.45" y2="239.66"/><path class="cls-5" d="M112,339.06a81.05,81.05,0,0,1-.86-8.4c-.1-1.38-.11-2.7-.16-4.06s0-2.66,0-4a2.72,2.72,0,0,1,.85-1.54,10.93,10.93,0,0,0,.88-1.52l1.64-3.11,3.28-6.21,13.12-24.85,13.12-24.85,6.56-12.42c2.2-1.49,4.41-3,6.75-4.38s4.75-2.79,7.33-4.08q.58,4.28.76,8.35c.15,2.73.18,5.39.19,8l-6.56,12.42-13.12,24.85L132.6,318.18l-3.28,6.21-1.64,3.11a10.93,10.93,0,0,0-.76,1.58,2.72,2.72,0,0,1-.79,1.57c-1.08.76-2.19,1.49-3.29,2.23s-2.25,1.46-3.44,2.15A81,81,0,0,1,112,339.06Z"/></g></g></svg>