<svg xmlns="http://www.w3.org/2000/svg" viewBox="0 0 378.52 576.62"><defs><style>.cls-1{fill:#fff;}.cls-2,.cls-8{fill:#635d59;}.cls-3,.cls-4,.cls-5,.cls-7{fill:none;}.cls-3{stroke:#fff;}.cls-3,.cls-4,.cls-5,.cls-7,.cls-8{stroke-miterlimit:10;}.cls-3,.cls-4{stroke-width:9px;}.cls-4{stroke:#9d9da0;}.cls-5{stroke:#231f20;stroke-width:7px;}.cls-6{fill:#c46366;}.cls-7,.cls-8{stroke:#635d59;}.cls-7{stroke-width:14px;}.cls-8{stroke-width:6px;}</style></defs><title>yacs-letterform-lockup-uncoated</title><g id="Layer_2" data-name="Layer 2"><g id="Layer_1-2" data-name="Layer 1"><circle class="cls-1" cx="165.14" cy="240.97" r="157.45"/><path class="cls-2" d="M11.93,564.82h17.4q4.6-9.6,9.5-19.1t9.5-18.9q-8-15.7-15.9-31.4T16.53,464H.53v-12.4h40.8V464H29.53q6.8,12.7,13.4,25.6t11.8,25.8q5.2-12.7,11.8-25.6T79.93,464h-12v-12.4h40V464H92.53q-12.8,25.3-25.5,50.3t-25.3,50.5h11.4v11.8H11.93Z"/><path class="cls-2" d="M123.73,489.22a37.31,37.31,0,0,1,3.1-15.1,41.21,41.21,0,0,1,8.4-12.5,39.85,39.85,0,0,1,12.6-8.6,38.7,38.7,0,0,1,15.7-3.2,33.68,33.68,0,0,1,10.5,1.6,38.9,38.9,0,0,1,8.7,4,33.78,33.78,0,0,1,6.3,5,12.35,12.35,0,0,1,3.1,4.6q0-3.2.3-6.6t.5-6.8h10.2v63.2h15v11.8h-26V514a14.53,14.53,0,0,1-3.1,4.4,28.29,28.29,0,0,1-6,4.6,39.25,39.25,0,0,1-8.6,3.7,37.16,37.16,0,0,1-10.9,1.5,39.77,39.77,0,0,1-15.7-3.1,39.29,39.29,0,0,1-12.6-8.4,39.9,39.9,0,0,1-8.4-12.4A37.29,37.29,0,0,1,123.73,489.22Zm12.4-.2a26.26,26.26,0,0,0,16.46,24.72,29.23,29.23,0,0,0,21.68,0,26.9,26.9,0,0,0,14.35-35.24A26.39,26.39,0,0,0,182.9,470a26.73,26.73,0,0,0-8.63-5.66,29.23,29.23,0,0,0-21.68,0A26.66,26.66,0,0,0,144,470a26.35,26.35,0,0,0-5.72,8.53A26.62,26.62,0,0,0,136.13,489Z"/><path class="cls-2" d="M303.13,519.62a42.75,42.75,0,0,1-11.5,6.3,39.11,39.11,0,0,1-13.5,2.3,38.54,38.54,0,0,1-15.4-3.1,40.84,40.84,0,0,1-12.6-8.4,39.07,39.07,0,0,1-8.5-12.4,39.05,39.05,0,0,1,0-30.5,38.81,38.81,0,0,1,8.5-12.5,41,41,0,0,1,12.6-8.4,38.54,38.54,0,0,1,15.4-3.1,39.71,39.71,0,0,1,13.7,2.3,42.91,42.91,0,0,1,11.5,6.3V480h-11.2V466a28.41,28.41,0,0,0-24.8-1.67,26.7,26.7,0,0,0,0,49.43,27.76,27.76,0,0,0,10.8,2.08,29.63,29.63,0,0,0,9.5-1.45,27.88,27.88,0,0,0,7.9-4.15Z"/><path class="cls-2" d="M337.73,504.42v8.84a17.84,17.84,0,0,0,6.45,2.16,60.26,60.26,0,0,0,7.26.39,15.55,15.55,0,0,0,2.92-.4,12.88,12.88,0,0,0,3.93-1.58,12.28,12.28,0,0,0,3.53-3.17,9.61,9.61,0,0,0,1.71-5.35q.2-4.36-2.32-6.64a20.3,20.3,0,0,0-6.33-3.77q-3.82-1.49-8.35-2.79a39.26,39.26,0,0,1-8.45-3.5,19,19,0,0,1-6.54-6.1q-2.62-3.9-2.62-10.7a19.95,19.95,0,0,1,7.8-16.6,23,23,0,0,1,7.4-3.8,26.47,26.47,0,0,1,7.6-1.2,40.43,40.43,0,0,1,4.1.3,42.19,42.19,0,0,1,5.8,1.1,30.93,30.93,0,0,1,6.1,2.3,17.78,17.78,0,0,1,5.2,3.9v16h-11.2v-9.08a13.09,13.09,0,0,0-5.15-1.74,37.11,37.11,0,0,0-4.34-.39,13.46,13.46,0,0,0-8,2.35q-3.33,2.35-2.93,7.26a7.35,7.35,0,0,0,3.12,5.29A31.58,31.58,0,0,0,351,481q3.82,1.57,8.15,3.17a35.73,35.73,0,0,1,8,4.2,22.67,22.67,0,0,1,6.23,6.6,18.89,18.89,0,0,1,2.52,10.2,24.83,24.83,0,0,1-1.2,7,23.22,23.22,0,0,1-4,7.6,21.75,21.75,0,0,1-7.6,6,27.24,27.24,0,0,1-12.2,2.4,53.63,53.63,0,0,1-6.2-.4,46,46,0,0,1-6.7-1.3,37,37,0,0,1-6.4-2.4,16.42,16.42,0,0,1-5.1-3.7v-16Z"/><path class="cls-3" d="M164.45,382.81"/><line class="cls-4" x1="164.45" y1="82.75" x2="164.45" y2="127.11"/><line class="cls-4" x1="164.45" y1="355.57" x2="164.45" y2="397.66"/><line class="cls-4" x1="279.82" y1="240.21" x2="321.91" y2="240.21"/><line class="cls-4" x1="49.09" y1="240.21" x2="7" y2="240.21"/><line class="cls-5" x1="231.84" y1="127.11" x2="245.05" y2="104.93"/><line class="cls-4" x1="83.86" y1="375.49" x2="97.07" y2="353.31"/><line class="cls-4" x1="27.05" y1="318.89" x2="49.97" y2="305.67"/><line class="cls-4" x1="276.94" y1="174.75" x2="299.86" y2="161.52"/><line class="cls-4" x1="49.09" y1="173.66" x2="28.05" y2="161.52"/><line class="cls-4" x1="298.09" y1="317.66" x2="277.05" y2="305.52"/><line class="cls-4" x1="97.07" y1="127.11" x2="83.86" y2="104.93"/><line class="cls-4" x1="245.05" y1="375.49" x2="231.84" y2="353.31"/><path class="cls-2" d="M217.82,146.37a77.64,77.64,0,0,1,.68,8.19c.07,1.34,0,2.63.08,3.94s0,2.58-.07,3.86a2.51,2.51,0,0,1-.87,1.45,10.07,10.07,0,0,0-.9,1.43l-1.69,2.92L211.68,174l-13.49,23.37L184.7,220.73l-6.75,11.69c-2.2,1.32-4.43,2.64-6.77,3.88s-4.76,2.44-7.33,3.56q-.49-4.18-.59-8.13c-.1-2.65-.07-5.24,0-7.81L170,212.23l13.49-23.37L197,165.49l3.37-5.84,1.69-2.92a10.07,10.07,0,0,0,.79-1.49,2.51,2.51,0,0,1,.82-1.48c1.08-.67,2.2-1.33,3.31-2s2.26-1.29,3.45-1.9A77.63,77.63,0,0,1,217.82,146.37Z"/><line class="cls-2" x1="102.7" y1="144.8" x2="164.45" y2="239.92"/><path class="cls-2" d="M102.7,144.8a81.8,81.8,0,0,1,7.79,3.39c1.26.59,2.42,1.24,3.64,1.86s2.35,1.29,3.5,2a2.77,2.77,0,0,1,.94,1.5,11.11,11.11,0,0,0,.91,1.52l1.93,3,3.86,5.94,15.44,23.78,15.44,23.78,7.72,11.89c.24,2.66.46,5.33.57,8.08s.14,5.54,0,8.44q-4-1.61-7.7-3.45c-2.47-1.21-4.82-2.5-7.15-3.81l-7.72-11.89L126.45,197,111,173.21l-3.86-5.94-1.93-3a11.11,11.11,0,0,0-1-1.45,2.77,2.77,0,0,1-1-1.47c-.14-1.32-.25-2.66-.36-4s-.19-2.69-.22-4.08A81.78,81.78,0,0,1,102.7,144.8Z"/><path class="cls-2" d="M203.33,38.51,186.51,67.77m0,0c-20,34.87,113.72,111.73,133.76,76.87l16.82-29.26L255,101.48l-51.66-63"/><path class="cls-2" d="M303.21,20.33l-11.64-2.05L187.83,0m0,0,75.43,89.63,115.27,20L303.21,20.33"/><path class="cls-6" d="M112,339.06a81,81,0,0,1-.86-8.4c-.1-1.38-.11-2.7-.16-4.06s0-2.66,0-4a2.72,2.72,0,0,1,.85-1.54,10.92,10.92,0,0,0,.88-1.52l1.64-3.11,3.28-6.21,13.12-24.85,13.12-24.85,6.56-12.42c2.2-1.49,4.41-3,6.75-4.38s4.75-2.79,7.33-4.08q.58,4.28.76,8.35c.15,2.73.18,5.39.19,8l-6.56,12.42-13.12,24.85L132.6,318.18l-3.28,6.21-1.64,3.11a10.92,10.92,0,0,0-.76,1.58,2.72,2.72,0,0,1-.79,1.57c-1.08.76-2.19,1.49-3.29,2.23s-2.25,1.46-3.44,2.15A81,81,0,0,1,112,339.06Z"/><circle class="cls-7" cx="164.45" cy="240.21" r="157.45"/><circle class="cls-8" cx="163.95" cy="239.92" r="16.55"/></g></g></svg>