<svg xmlns="http://www.w3.org/2000/svg" viewBox="0 0 337.48 357.72"><defs><style>.cls-1{fill:#fff;}</style></defs><title>Asset 4</title><g id="Layer_2" data-name="Layer 2"><g id="Layer_1-2" data-name="Layer 1"><path class="cls-1" d="M273.61,120C259.13,128.72,350.32,87,327,34.36h0c.67-10.65,29.76,39-12,80.35-9.63,9.55-23,18.66-41.43,26.49"/><path class="cls-1" d="M63.9,141.2c-18.4-7.83-31.8-16.94-41.43-26.49-41.74-41.38-12.65-91-12-80.35h0C-12.85,87,78.34,128.72,63.86,120"/><path class="cls-1" d="M95.67,124.07"/><line class="cls-1" x1="73.49" y1="108.93" x2="73.49" y2="171.83"/><path class="cls-1" d="M72.29,175.17c0,74.94,192.89,74.94,192.89,0V112.28L167.52,166,72.29,112.28"/><path class="cls-1" d="M136.92,139.07"/><polyline class="cls-1" points="170.18 3 156.28 10.5 32.44 77.3"/><path class="cls-1" d="M170.18,0,32.44,74.3,170,149.07,307.44,74.3Zm-1.09,85c-8.5,0-15.39-4.67-15.39-10.42s6.89-10.42,15.39-10.42,15.39,4.67,15.39,10.42S177.59,85,169.09,85Z"/><path class="cls-1" d="M63.73,265.17v56.7A35.43,35.43,0,0,1,12.44,354c-4.2-1.8-5.7-6.45-3.9-10.65A8.24,8.24,0,0,1,19.19,340a20.07,20.07,0,0,0,8.7,2.1,19.83,19.83,0,0,0,18.75-13.65,29.15,29.15,0,0,1-14.25,3.6A31.56,31.56,0,0,1,1,300.57v-35.4a8,8,0,0,1,7.8-8,7.73,7.73,0,0,1,7.95,8v35.4a15.33,15.33,0,0,0,15.6,15.3,15.21,15.21,0,0,0,15.45-15.3v-35.4a7.69,7.69,0,0,1,7.8-8A8,8,0,0,1,63.73,265.17Z"/><path class="cls-1" d="M161.08,294.87v29.4a8,8,0,0,1-7.95,7.95,8.16,8.16,0,0,1-7.8-6.45,34.07,34.07,0,0,1-19.95,6.45,34.84,34.84,0,0,1-25.5-10.95,38.39,38.39,0,0,1-10.2-26.4,37.85,37.85,0,0,1,10.2-26.4,34.54,34.54,0,0,1,25.5-11.25,34.19,34.19,0,0,1,19.95,6.6,8.15,8.15,0,0,1,7.8-6.6,8,8,0,0,1,7.95,8.1Zm-15.9,0a22.06,22.06,0,0,0-5.85-15.45,18.54,18.54,0,0,0-13.95-6.15,18.08,18.08,0,0,0-13.95,6.15c-3.6,3.75-5.7,9.15-5.7,15.45a22.5,22.5,0,0,0,5.7,15.45,18.89,18.89,0,0,0,13.95,5.85,19.39,19.39,0,0,0,13.95-5.85A22.6,22.6,0,0,0,145.18,294.87Z"/><path class="cls-1" d="M189,294.87c0-20.85,17.4-37.5,38.1-37.65a39.53,39.53,0,0,1,23.85,8.25,8.24,8.24,0,0,1,1.65,11.1c-3,3.6-7.8,4.2-11.25,1.5a23.94,23.94,0,0,0-14.25-4.8c-12.15,0-22.2,10-22.2,21.6s10,21.45,22.2,21.45a24.28,24.28,0,0,0,14.25-4.8,8.17,8.17,0,0,1,11.25,1.65,8.28,8.28,0,0,1-1.65,11.1,41.33,41.33,0,0,1-23.85,7.95C206.38,332.22,189,315.42,189,294.87Z"/><path class="cls-1" d="M280.78,310.77a7.8,7.8,0,0,1,11.25-1.2c3.9,3.3,10.65,6.75,16.5,6.6a20,20,0,0,0,10.2-2.85c2.1-1.8,2.7-3.3,2.7-4.5a2.24,2.24,0,0,0-.45-1.5c-.15-.45-.75-1-2-1.8-2.1-1.5-6.6-3.15-12-4.2h-.15a57.62,57.62,0,0,1-13-3.9,25.07,25.07,0,0,1-10.35-8.7,18.19,18.19,0,0,1-2.55-9.45c0-6.9,3.9-12.75,8.85-16.5a32.27,32.27,0,0,1,18.45-5.55c10.35,0,17.7,5,22.5,8.25a8.29,8.29,0,0,1,2.4,11.1,7.94,7.94,0,0,1-11.1,2.1c-4.8-3.15-9-5.55-13.8-5.55a15.27,15.27,0,0,0-9,2.7c-2,1.35-2.4,2.7-2.4,3.45a1.61,1.61,0,0,0,.3,1.2,4,4,0,0,0,1.65,1.5c2,1.35,5.85,2.7,10.95,3.6l.15.15H310a54,54,0,0,1,14,4.35,23.31,23.31,0,0,1,10.65,8.85,19.43,19.43,0,0,1,2.85,9.9c0,7.35-4,13.5-9.45,17.4a34.13,34.13,0,0,1-19.5,6c-11.7-.15-20.7-5.55-26.7-10.35A8,8,0,0,1,280.78,310.77Z"/></g></g></svg>